Coordinates
version=1
nRows=32
nColumns=22
inDegrees=yes

Units are S.I. units (second, meters, Newtons, ...)
If the header above contains a line with 'inDegrees', this indicates whether rotational values are in degrees (yes) or radians (no).

endheader
time	pelvis_tilt	pelvis_list	pelvis_rotation	pelvis_tx	pelvis_ty	pelvis_tz	hip_flexion_r	hip_adduction_r	hip_rotation_r	knee_angle_r	ankle_angle_r	subtalar_angle_r	hip_flexion_l	hip_adduction_l	hip_rotation_l	knee_angle_l	ankle_angle_l	subtalar_angle_l	lumbar_extension	lumbar_bending	lumbar_rotation
      2.75000000	      6.09134680	     -0.71181944	      0.17837296	      0.30787972	      0.90243023	     -0.09880080	    -13.14745128	      2.72649125	      1.76424212	    -36.51186746	      9.64420760	      5.66076652	     25.22410752	      0.97880104	     -5.30139480	    -36.24558525	     12.25496941	    -18.14359894	    -14.39786526	      0.38107038	     -5.08400721
      2.76000000	      5.98681544	     -0.63513552	     -0.01563625	      0.29470285	      0.90131850	     -0.09749904	    -13.10711756	      2.71411919	      1.60332542	    -35.33952229	     12.21472220	      5.00713003	     25.78746057	      0.88970390	     -5.58397965	    -35.28606300	     10.82376764	    -17.94684137	    -14.59442215	      0.29634570	     -5.06601262
      2.77000000	      5.89144063	     -0.58045313	     -0.13786467	      0.28129384	      0.90049646	     -0.09630969	    -12.90986242	      2.72130867	      1.28660400	    -34.33150171	     14.72339840	      4.22676218	     26.24465248	      0.79332548	     -5.85016471	    -34.09579125	      9.20371068	    -17.61052587	    -14.82853079	      0.25699111	     -5.11650411
      2.78000000	      5.80468803	     -0.54862580	     -0.18652357	      0.26772342	      0.89996191	     -0.09524513	    -12.56979715	      2.75233223	      0.83256909	    -33.47940828	     17.05127947	      3.28286237	     26.59509532	      0.69016291	     -6.12205554	    -32.68896653	      7.41895721	    -17.09714849	    -15.08878899	      0.26105482	     -5.23217057
      2.79000000	      5.72118909	     -0.53898020	     -0.16852360	      0.25407788	      0.89971199	     -0.09431629	    -12.10506767	      2.81156818	      0.29695158	    -32.76188149	     19.10886983	      2.19557270	     26.84116015	      0.58726282	     -6.40301912	    -31.08841953	      5.49411931	    -16.37630046	    -15.35740950	      0.30769705	     -5.40647803
      2.80000000	      5.64074567	     -0.54408763	     -0.08852761	      0.24042653	      0.89972802	     -0.09356643	    -11.52902873	      2.88480882	     -0.29882652	    -32.17610487	     20.86521956	      1.05951095	     26.99009638	      0.49986116	     -6.70004214	    -29.34439125	      3.47220598	    -15.44212882	    -15.62314516	      0.39234051	     -5.61753713
      2.81000000	      5.56870613	     -0.56271443	      0.04442388	      0.22685381	      0.89998965	     -0.09300142	    -10.86832326	      2.96803047	     -0.92168734	    -31.70836168	     22.31505327	     -0.07714041	     27.04938933	      0.43138547	     -7.01012927	    -27.53386656	      1.44178357	    -14.25534456	    -15.87963819	      0.51286205	     -5.85457486
      2.82000000	      5.51107696	     -0.59353119	      0.22379325	      0.21345441	      0.90047865	     -0.09262618	    -10.15480204	      3.05815702	     -1.54308323	    -31.33540565	     23.47483954	     -1.14685112	     27.02819954	      0.38533469	     -7.31555478	    -25.75194337	     -0.46852988	    -12.80246434	    -16.11965302	      0.66625973	     -6.11585920
      2.83000000	      5.47462249	     -0.64202414	      0.44122393	      0.20027969	      0.90117193	     -0.09242883	     -9.41043964	      3.15835949	     -2.15030596	    -31.04731802	     24.36992454	     -2.11914766	     26.94471877	      0.35180406	     -7.58793424	    -24.11557940	     -2.12571432	    -11.11120216	    -16.34529872	      0.85656898	     -6.38590744
      2.84000000	      5.46681935	     -0.71447590	      0.69403733	      0.18735701	      0.90205349	     -0.09238251	     -8.65757469	      3.27609817	     -2.73598585	    -30.83093946	     25.02507803	     -2.97104969	     26.82002409	      0.31473550	     -7.80583759	    -22.74456825	     -3.40387452	     -9.28996732	    -16.56305405	      1.08526654	     -6.67011407
      2.85000000	      5.48535760	     -0.80838586	      0.98418813	      0.17475869	      0.90312798	     -0.09246117	     -7.93137741	      3.41667849	     -3.28579678	    -30.62977752	     25.46060747	     -3.71048905	     26.67621369	      0.26245212	     -7.97069710	    -21.74138127	     -4.19647651	     -7.50513735	    -16.75803189	      1.34586574	     -6.97487533
      2.86000000	      5.53334158	     -0.92529359	      1.30540835	      0.16245951	      0.90440422	     -0.09262921	     -7.23936131	      3.58165042	     -3.80840468	    -30.43687063	     25.69515303	     -4.34093232	     26.52730481	      0.17906909	     -8.07061012	    -21.17571029	     -4.43615515	     -6.00385316	    -16.94175611	      1.63334591	     -7.28455185
      2.87000000	      5.62221588	     -1.07332296	      1.66064603	      0.15044436	      0.90591001	     -0.09284528	     -6.60891597	      3.78856944	     -4.30139373	    -30.22673237	     25.75600779	     -4.89394691	     26.37774709	      0.03650744	     -8.12938376	    -21.09588173	     -4.10798650	     -4.98035903	    -17.13406830	      1.95178756	     -7.61267626
      2.88000000	      5.75069211	     -1.24085097	      2.03264772	      0.13873493	      0.90767437	     -0.09306181	     -6.05750890	      4.02965971	     -4.74387491	    -29.96680851	     25.63956739	     -5.37739578	     26.21581753	     -0.17394996	     -8.18365984	    -21.48436409	     -3.24378396	     -4.56235670	    -17.33203549	      2.28085757	     -7.94872602
      2.89000000	      5.91437030	     -1.41766417	      2.41633081	      0.12733735	      0.90970797	     -0.09325603	     -5.59358017	      4.29500249	     -5.14362753	    -29.63480654	     25.36883252	     -5.83299246	     26.02392382	     -0.44714444	     -8.22411701	    -22.28409777	     -1.93498259	     -4.69940018	    -17.53168302	      2.60234207	     -8.28190278
      2.90000000	      6.08741850	     -1.59169026	      2.78541943	      0.11623384	      0.91196738	     -0.09340642	     -5.18061560	      4.56196123	     -5.51202313	    -29.24926608	     24.97681699	     -6.38486369	     25.79381603	     -0.76923881	     -8.23358146	    -23.39734588	     -0.24790916	     -5.50600592	    -17.70636335	      2.89803304	     -8.58866700
      2.91000000	      6.28943353	     -1.77478115	      3.14488743	      0.10542174	      0.91448422	     -0.09350581	     -4.86821549	      4.85125425	     -5.83813251	    -28.75456599	     24.43888605	     -6.87351683	     25.49640344	     -1.14788403	     -8.19795034	    -24.77167383	      1.65912093	     -6.75031962	    -17.88299754	      3.18072880	     -8.87779640
      2.92000000	      6.49400697	     -1.94910865	      3.46279191	      0.09488301	      0.91719631	     -0.09355346	     -4.61888916	      5.12970378	     -6.11283792	    -28.17138968	     23.79893840	     -7.35208400	     25.12539435	     -1.55278938	     -8.09370223	    -26.30763901	      3.70241632	     -8.32526536	    -18.03378049	      3.43016516	     -9.12595079
      2.93000000	      6.68510713	     -2.10711859	      3.72505004	      0.08458437	      0.92003983	     -0.09352662	     -4.40969668	      5.38465690	     -6.33945661	    -27.51309657	     23.08153969	     -7.81313279	     24.68661198	     -1.96484303	     -7.91483442	    -27.94649305	      5.78496725	    -10.08135913	    -18.14849359	      3.62979690	     -9.32184323
      2.94000000	      6.85181937	     -2.25095747	      3.91738530	      0.07447892	      0.92295128	     -0.09342668	     -4.21164485	      5.60703170	     -6.53131852	    -26.81010150	     22.29508150	     -8.23466546	     24.19068185	     -2.37640478	     -7.66947405	    -29.65251886	      7.80453368	    -11.85139610	    -18.22141576	      3.78084149	     -9.44394202
      2.95000000	      6.97612389	     -2.36662791	      4.03626328	      0.06455837	      0.92586106	     -0.09327824	     -4.00439166	      5.77717751	     -6.68807843	    -26.06866396	     21.47794471	     -8.60774327	     23.65019824	     -2.75828850	     -7.36795225	    -31.39073393	      9.71529635	    -13.52778558	    -18.23292959	      3.87240099	     -9.49932060
      2.96000000	      7.05328393	     -2.44632250	      4.07732308	      0.05474450	      0.92870639	     -0.09308333	     -3.75385768	      5.88817697	     -6.78413549	    -25.33912277	     20.65170638	     -8.92245373	     23.07251301	     -3.08769589	     -7.00272357	    -33.13833474	     11.48335282	    -15.02210839	    -18.19357479	      3.89428878	     -9.51430489
      2.97000000	      7.09745826	     -2.51006019	      4.05367658	      0.04503486	      0.93144337	     -0.09289716	     -3.46046089	      5.95314175	     -6.87238083	    -24.64979639	     19.80927276	     -9.17463601	     22.46600974	     -3.39123623	     -6.63324652	    -34.92180081	     13.04939826	    -16.25260566	    -18.11502351	      3.88909785	     -9.45908097
      2.98000000	      7.09758602	     -2.54251037	      3.97520647	      0.03540782	      0.93402452	     -0.09269888	     -3.11503752	      5.96987124	     -6.91116684	    -23.99165432	     18.99181474	     -9.38037754	     21.83456747	     -3.64366163	     -6.25694162	    -36.70941892	     14.41963311	    -17.25128179	    -17.98998623	      3.82847253	     -9.38178865
      2.99000000	      7.06666457	     -2.55029931	      3.85495311	      0.02585846	      0.93641116	     -0.09255025	     -2.71689816	      5.94101174	     -6.93039103	    -23.39462891	     18.20349511	     -9.55051438	     21.17338449	     -3.85386821	     -5.90442810	    -38.50462303	     15.60333295	    -18.00936127	    -17.83108748	      3.73988851	     -9.26786912
      3.00000000	      7.00858974	     -2.53487675	      3.71464522	      0.01636766	      0.93856626	     -0.09245530	     -2.26674240	      5.87818219	     -6.92412657	    -22.86054794	     17.46176235	     -9.70070072	     20.48017227	     -4.02131238	     -5.57148499	    -40.29299057	     16.61734350	    -18.61015323	    -17.64188421	      3.62123553	     -9.13402136
      3.01000000	      6.94254336	     -2.51592120	      3.56710911	      0.00689742	      0.94046450	     -0.09242884	     -1.77141496	      5.80534137	     -6.90041810	    -22.40900594	     16.76410625	     -9.82914042	     19.75124700	     -4.17998833	     -5.28410698	    -42.08520217	     17.45712390	    -19.05317029	    -17.45146655	      3.50687094	     -9.01194626
      3.02000000	      6.88910438	     -2.50850627	      3.43155467	     -0.00255196	      0.94211392	     -0.09249163	     -1.25966907	      5.74599491	     -6.85337859	    -22.02366901	     16.10117429	     -9.92186980	     18.96235696	     -4.34516458	     -5.02020752	    -43.86025945	     18.12772145	    -19.27813352	    -17.28110655	      3.41888925	     -8.89243119
      3.03000000	      6.82017699	     -2.50075263	      3.31571999	     -0.01199359	      0.94344244	     -0.09263242	     -0.68463632	      5.68467003	     -6.79870455	    -21.73498558	     15.50330093	    -10.02235468	     18.14215375	     -4.49963979	     -4.76929553	    -45.59856683	     18.69563386	    -19.55678161	    -17.09806965	      3.33528222	     -8.80106808
      3.04000000	      6.75350477	     -2.49752564	      3.22812737	     -0.02141885	      0.94446129	     -0.09290467	     -0.05908582	      5.61752531	     -6.77894713	    -21.55497227	     14.99174331	    -10.13854873	     17.26801243	     -4.65234681	     -4.54033131	    -47.27918450	     19.16497493	    -19.89248835	    -16.91915596	      3.27354152	     -8.71647844
      3.05000000	      6.71808524	     -2.51877653	      3.18156481	     -0.03082782	      0.94522971	     -0.09327456	      0.56097919	      5.58872939	     -6.70758039	    -21.42993258	     14.48783325	    -10.22671940	     16.30549582	     -4.82637997	     -4.30016982	    -48.87548412	     19.54450004	    -20.04038486	    -16.77913353	      3.25605301	     -8.68795307
      3.06000000	      6.68904671	     -2.56895062	      3.17055050	     -0.04022904	      0.94569087	     -0.09373553	      1.22836451	      5.58844559	     -6.64686307	    -21.40686933	     14.03776962	    -10.32153344	     15.28499991	     -5.03183825	     -4.06319920	    -50.37667356	     19.85252572	    -20.18183808	    -16.64641083	      3.27906364	     -8.67742820
